<mxfile host="65bd71144e">
    <diagram id="wM3iq7IUX6TJJjrASxDB" name="Page-1">
        <mxGraphModel dx="929" dy="683" grid="1" gridSize="10" guides="1" tooltips="1" connect="1" arrows="1" fold="1" page="1" pageScale="1" pageWidth="850" pageHeight="1100" math="0" shadow="0">
            <root>
                <mxCell id="0"/>
                <mxCell id="1" parent="0"/>
                <mxCell id="2" value="&lt;font&gt;&lt;span style=&quot;font-size: 16px&quot;&gt;MENU&lt;/span&gt;&lt;br&gt;&lt;/font&gt;" style="rounded=1;whiteSpace=wrap;html=1;" vertex="1" parent="1">
                    <mxGeometry x="412.5" y="300" width="110" height="70" as="geometry"/>
                </mxCell>
                <mxCell id="6" value="&lt;font&gt;&lt;span style=&quot;font-size: 16px&quot;&gt;NHÂN VIÊN&lt;/span&gt;&lt;br&gt;&lt;span style=&quot;font-size: 16px&quot;&gt;http://localhost:3000/staffs&lt;/span&gt;&lt;br&gt;&lt;/font&gt;" style="rounded=1;whiteSpace=wrap;html=1;" vertex="1" parent="1">
                    <mxGeometry x="1" y="300" width="220" height="70" as="geometry"/>
                </mxCell>
                <mxCell id="7" value="&lt;font&gt;&lt;span style=&quot;font-size: 16px&quot;&gt;BẢNG LƯƠNG&lt;/span&gt;&lt;br&gt;&lt;span style=&quot;font-size: 16px&quot;&gt;http://localhost:3000/salary&lt;/span&gt;&lt;br&gt;&lt;/font&gt;" style="rounded=1;whiteSpace=wrap;html=1;" vertex="1" parent="1">
                    <mxGeometry x="340" y="110" width="255" height="70" as="geometry"/>
                </mxCell>
                <mxCell id="8" value="" style="endArrow=classic;html=1;entryX=1.009;entryY=0.6;entryDx=0;entryDy=0;entryPerimeter=0;exitX=0;exitY=0.5;exitDx=0;exitDy=0;" edge="1" parent="1" source="2">
                    <mxGeometry relative="1" as="geometry">
                        <mxPoint x="320" y="335.27000000000004" as="sourcePoint"/>
                        <mxPoint x="223.96" y="334.29" as="targetPoint"/>
                    </mxGeometry>
                </mxCell>
                <mxCell id="9" value="&quot;Nhân viên&quot;" style="edgeLabel;resizable=0;html=1;align=center;verticalAlign=middle;" connectable="0" vertex="1" parent="8">
                    <mxGeometry relative="1" as="geometry"/>
                </mxCell>
                <mxCell id="11" value="" style="endArrow=classic;html=1;exitX=0.5;exitY=0;exitDx=0;exitDy=0;entryX=0.5;entryY=1;entryDx=0;entryDy=0;" edge="1" parent="1" source="2" target="7">
                    <mxGeometry relative="1" as="geometry">
                        <mxPoint x="466.03999999999996" y="260.98" as="sourcePoint"/>
                        <mxPoint x="426" y="220" as="targetPoint"/>
                    </mxGeometry>
                </mxCell>
                <mxCell id="12" value="&quot;Bảng lương&quot;" style="edgeLabel;resizable=0;html=1;align=center;verticalAlign=middle;" connectable="0" vertex="1" parent="11">
                    <mxGeometry relative="1" as="geometry"/>
                </mxCell>
                <mxCell id="13" value="&lt;font&gt;&lt;span style=&quot;font-size: 16px&quot;&gt;PHÒNG BAN&lt;br&gt;&lt;/span&gt;&lt;br&gt;&lt;span style=&quot;font-size: 16px&quot;&gt;http://localhost:3000/departments&lt;/span&gt;&lt;br&gt;&lt;/font&gt;" style="rounded=1;whiteSpace=wrap;html=1;" vertex="1" parent="1">
                    <mxGeometry x="340" y="470" width="255" height="70" as="geometry"/>
                </mxCell>
                <mxCell id="14" value="&lt;font&gt;&lt;span style=&quot;font-size: 16px&quot;&gt;THÔNG TIN NHÂN VIÊN&lt;br&gt;&lt;/span&gt;&lt;br&gt;&lt;span style=&quot;font-size: 16px&quot;&gt;http://localhost:3000/staffs/staffID&lt;br&gt;&lt;br&gt;&lt;/span&gt;&lt;span style=&quot;font-size: 16px&quot;&gt;Ví dụ: http://localhost:3000/staffs/0&lt;/span&gt;&lt;br style=&quot;font-size: 16px&quot;&gt;&lt;/font&gt;" style="rounded=1;whiteSpace=wrap;html=1;" vertex="1" parent="1">
                    <mxGeometry y="90" width="260" height="130" as="geometry"/>
                </mxCell>
                <mxCell id="17" value="" style="shape=flexArrow;endArrow=classic;startArrow=classic;html=1;entryX=0.449;entryY=1.039;entryDx=0;entryDy=0;entryPerimeter=0;exitX=0.531;exitY=0;exitDx=0;exitDy=0;exitPerimeter=0;" edge="1" parent="1">
                    <mxGeometry width="100" height="100" relative="1" as="geometry">
                        <mxPoint x="116.81999999999994" y="298.9999999999999" as="sourcePoint"/>
                        <mxPoint x="116.74000000000001" y="221.7299999999999" as="targetPoint"/>
                    </mxGeometry>
                </mxCell>
                <mxCell id="18" value="" style="endArrow=classic;html=1;entryX=0.5;entryY=0;entryDx=0;entryDy=0;exitX=0.5;exitY=1;exitDx=0;exitDy=0;" edge="1" parent="1" source="2" target="13">
                    <mxGeometry relative="1" as="geometry">
                        <mxPoint x="390" y="373" as="sourcePoint"/>
                        <mxPoint x="440" y="470" as="targetPoint"/>
                    </mxGeometry>
                </mxCell>
                <mxCell id="19" value="&quot;Phòng ban&quot;" style="edgeLabel;resizable=0;html=1;align=center;verticalAlign=middle;" connectable="0" vertex="1" parent="18">
                    <mxGeometry relative="1" as="geometry"/>
                </mxCell>
                <mxCell id="20" value="" style="shape=flexArrow;endArrow=classic;startArrow=classic;html=1;exitX=0.5;exitY=0;exitDx=0;exitDy=0;entryX=0.5;entryY=1;entryDx=0;entryDy=0;" edge="1" parent="1" source="21" target="13">
                    <mxGeometry width="100" height="100" relative="1" as="geometry">
                        <mxPoint x="440.0799999999999" y="617.2699999999999" as="sourcePoint"/>
                        <mxPoint x="405" y="540" as="targetPoint"/>
                    </mxGeometry>
                </mxCell>
                <mxCell id="21" value="&lt;font&gt;&lt;span style=&quot;font-size: 16px&quot;&gt;DANH SÁCH NHÂN VIÊN TRONG PHÒNG BAN&lt;br&gt;&lt;/span&gt;&lt;br&gt;&lt;span style=&quot;font-size: 16px&quot;&gt;http://localhost:3000/departments/departmentID&lt;br&gt;&lt;br&gt;&lt;/span&gt;&lt;span style=&quot;font-size: 16px&quot;&gt;Ví dụ: http://localhost:3000/departments/Dept01&lt;/span&gt;&lt;br style=&quot;font-size: 16px&quot;&gt;&lt;/font&gt;" style="rounded=1;whiteSpace=wrap;html=1;" vertex="1" parent="1">
                    <mxGeometry x="267.5" y="620" width="400" height="140" as="geometry"/>
                </mxCell>
                <mxCell id="32" value="&lt;font&gt;&lt;span style=&quot;font-size: 16px&quot;&gt;TRANG CHỦ&lt;br&gt;http://localhost:3000/home&lt;/span&gt;&lt;br&gt;&lt;/font&gt;" style="rounded=1;whiteSpace=wrap;html=1;" vertex="1" parent="1">
                    <mxGeometry x="620" y="300" width="220" height="70" as="geometry"/>
                </mxCell>
                <mxCell id="33" value="" style="endArrow=classic;html=1;entryX=0;entryY=0.5;entryDx=0;entryDy=0;exitX=1;exitY=0.5;exitDx=0;exitDy=0;" edge="1" parent="1" source="2" target="32">
                    <mxGeometry relative="1" as="geometry">
                        <mxPoint x="520" y="340" as="sourcePoint"/>
                        <mxPoint x="535" y="300" as="targetPoint"/>
                    </mxGeometry>
                </mxCell>
                <mxCell id="34" value="&quot;LOGO&quot;" style="edgeLabel;resizable=0;html=1;align=center;verticalAlign=middle;" connectable="0" vertex="1" parent="33">
                    <mxGeometry relative="1" as="geometry"/>
                </mxCell>
                <mxCell id="36" value="" style="endArrow=classic;html=1;entryX=1;entryY=0;entryDx=0;entryDy=0;exitX=0.25;exitY=1;exitDx=0;exitDy=0;" edge="1" parent="1" source="7" target="6">
                    <mxGeometry relative="1" as="geometry">
                        <mxPoint x="418.54" y="240.70999999999987" as="sourcePoint"/>
                        <mxPoint x="230.00000000000003" y="239.99999999999994" as="targetPoint"/>
                    </mxGeometry>
                </mxCell>
                <mxCell id="37" value="&quot;Nhân viên&quot;" style="edgeLabel;resizable=0;html=1;align=center;verticalAlign=middle;" connectable="0" vertex="1" parent="36">
                    <mxGeometry relative="1" as="geometry"/>
                </mxCell>
            </root>
        </mxGraphModel>
    </diagram>
</mxfile>